<svg version="1.1" id="Layer_1" xmlns="http://www.w3.org/2000/svg" xmlns:xlink="http://www.w3.org/1999/xlink" x="0px" y="0px"
	 width="100%" viewBox="0 0 343 343" enable-background="new 0 0 343 343" xml:space="preserve">
<path fill="#FEFEFE" opacity="1.000000" stroke="none" 
	d="
M198.000000,344.000000 
	C132.000015,344.000000 66.500023,344.000000 1.000026,344.000000 
	C1.000018,229.666702 1.000018,115.333397 1.000009,1.000072 
	C115.333282,1.000048 229.666565,1.000048 343.999878,1.000024 
	C343.999939,115.333260 343.999939,229.666519 343.999969,343.999878 
	C295.500000,344.000000 247.000000,344.000000 198.000000,344.000000 
M156.933762,68.879997 
	C164.275314,68.957825 171.616882,69.035652 178.931656,70.036209 
	C178.931656,77.136864 178.931656,84.237518 178.931656,91.338181 
	C179.398178,91.448273 179.864700,91.558372 180.331223,91.668472 
	C185.555145,85.117981 190.779068,78.567482 196.715744,71.700363 
	C196.990555,65.290138 197.393082,58.879486 197.371979,52.470230 
	C197.369461,51.704044 195.067291,50.291943 193.822006,50.281750 
	C176.204468,50.137520 158.584763,50.126141 140.968002,50.312775 
	C139.773911,50.325428 137.621964,52.138268 137.582001,53.177952 
	C137.392288,58.112427 137.780777,63.069134 137.844910,68.676888 
	C137.896149,69.117897 137.947372,69.558914 137.849579,70.911659 
	C137.898254,74.608116 137.946915,78.304581 137.844513,82.909752 
	C137.589005,86.519875 137.333496,90.129997 136.156433,93.485680 
	C121.633179,93.449425 107.109726,93.375420 92.587013,93.447678 
	C91.409546,93.453537 90.237061,94.461113 88.876053,95.924065 
	C88.932373,101.950508 88.988693,107.976944 88.868263,114.924492 
	C88.897186,120.283089 88.926109,125.641678 88.792870,131.901016 
	C88.580811,136.125656 88.368759,140.350296 87.215721,144.365463 
	C73.477036,144.338226 59.738029,144.264282 46.000153,144.357086 
	C44.650166,144.366211 43.307095,145.398865 41.785767,146.632599 
	C41.853821,147.088730 41.921875,147.544861 41.793591,148.918060 
	C41.862213,153.945786 41.930836,158.973495 41.795631,164.918839 
	C41.867329,170.612946 41.939026,176.307068 41.796154,182.809357 
	C41.791115,184.200165 41.786072,185.590958 41.331676,187.665375 
	C41.257282,203.017212 41.158073,218.369034 41.137535,233.720947 
	C41.134731,235.816360 41.524494,237.912308 41.703976,240.942932 
	C41.806282,247.295410 41.908588,253.647888 41.762924,260.910004 
	C41.845760,267.273560 41.928596,273.637085 41.757133,280.909027 
	C41.795738,287.651886 41.834339,294.394745 42.084007,301.885803 
	C46.349884,302.122864 50.639099,302.158875 54.875404,302.650665 
	C59.587677,303.197754 60.713161,301.272858 60.694286,296.765106 
	C60.517429,254.524902 60.548489,212.283798 60.567699,170.042953 
	C60.568745,167.747025 60.999630,165.451309 62.137341,163.212250 
	C71.054008,163.486984 79.970673,163.761703 88.801079,164.965332 
	C88.804161,176.007294 88.807243,187.049255 88.547104,198.637711 
	C88.595825,199.538605 88.644554,200.439514 88.693275,201.340408 
	C89.001198,201.396881 89.309120,201.453339 89.617035,201.509811 
	C90.211250,200.478119 90.805466,199.446426 91.861244,197.949081 
	C96.210831,192.726074 100.684021,187.598419 104.832733,182.220444 
	C106.036804,180.659607 106.788696,178.412094 106.913475,176.426926 
	C107.172440,172.306870 106.872551,168.151688 106.980621,163.090988 
	C106.923317,158.064301 106.866020,153.037613 106.981537,147.087723 
	C106.921944,141.726929 106.862350,136.366119 106.970062,130.082169 
	C106.916336,124.724693 106.862610,119.367210 107.104538,113.219719 
	C108.569092,112.802124 110.026306,112.057144 111.499481,112.024109 
	C117.587433,111.887573 123.682922,111.860474 129.770020,112.014870 
	C132.488266,112.083809 135.193222,112.676620 137.800903,113.959930 
	C137.800903,122.911057 137.800903,131.862183 137.800903,140.813309 
	C143.185837,136.186234 146.972427,130.979111 151.424805,126.422554 
	C155.550934,122.199875 156.779449,117.551872 155.949524,111.084137 
	C155.895935,106.059608 155.842361,101.035088 155.948837,95.088364 
	C155.894547,90.394836 155.840256,85.701302 155.943115,80.096581 
	C155.952438,76.393387 155.961761,72.690193 155.983368,69.004066 
	C155.983368,69.004066 156.004028,69.007889 156.933762,68.879997 
M293.372955,221.097809 
	C293.274261,215.063828 293.175568,209.029831 293.365936,202.095840 
	C293.269562,195.729141 293.173187,189.362457 293.356873,182.093384 
	C293.263458,175.727676 293.170044,169.361969 293.347778,162.097137 
	C293.317993,157.421982 293.288208,152.746811 293.648407,147.343292 
	C293.662231,116.228058 293.623657,85.112587 293.758118,53.997875 
	C293.774353,50.234818 291.849884,50.140495 289.072235,50.151569 
	C273.264099,50.214607 257.426270,50.756958 241.658920,49.952625 
	C233.112595,49.516666 228.319641,53.049934 224.352936,60.082390 
	C224.103607,60.285927 223.965714,60.548073 223.366791,61.070763 
	C222.949966,61.728088 222.533142,62.385414 221.556976,63.408180 
	C214.621292,71.910263 207.685608,80.412346 200.173676,89.225105 
	C194.521698,96.166145 188.869720,103.107185 182.623642,110.379082 
	C177.047073,117.239388 171.470490,124.099701 165.306686,131.266663 
	C159.943420,137.861954 154.580154,144.457245 148.715958,151.290695 
	C148.437683,151.754868 148.159409,152.219040 147.306961,152.939209 
	C146.864563,153.623840 146.422150,154.308472 145.382843,155.290024 
	C140.892426,160.851227 136.402008,166.412415 131.319717,172.269150 
	C126.541130,178.177567 121.762535,184.085999 116.418518,190.247192 
	C115.573975,191.396866 114.729424,192.546539 113.313423,193.949203 
	C112.878975,194.633957 112.444519,195.318726 111.413277,196.297363 
	C109.372353,198.885391 107.331421,201.473419 104.689018,204.392227 
	C100.785835,209.258270 96.882652,214.124329 92.412666,219.240555 
	C91.568657,220.389465 90.724648,221.538391 89.305725,222.938705 
	C88.868187,223.625031 88.430649,224.311356 87.425728,225.249023 
	C86.578491,226.398865 85.731255,227.548706 84.310730,228.947052 
	C83.873329,229.631027 83.435921,230.315002 82.399040,231.293396 
	C79.296371,235.207352 76.193710,239.121307 72.442604,243.574142 
	C72.416702,251.384430 72.390800,259.194702 72.163635,267.921448 
	C72.231583,273.952881 72.299522,279.984344 72.164558,286.927612 
	C72.164558,291.846497 72.164558,296.765381 72.164558,301.652649 
	C146.254105,301.652649 219.591782,301.652649 293.078400,301.652649 
	C293.078400,295.249176 293.078400,289.150452 293.437988,282.175781 
	C293.322723,277.432190 293.207458,272.688599 293.453369,267.087097 
	C293.329224,258.056671 293.205078,249.026230 293.386627,239.101700 
	C293.285828,233.400391 293.185059,227.699097 293.372955,221.097809 
z"/>
<path fill="#A2071E" opacity="1.000000" stroke="none" 
	d="
M293.078400,283.051727 
	C293.078400,289.150452 293.078400,295.249176 293.078400,301.652649 
	C219.591782,301.652649 146.254105,301.652649 72.164558,301.652649 
	C72.164558,296.765381 72.164558,291.846497 72.640579,286.459747 
	C77.303444,285.327698 81.499954,284.717468 85.672066,283.970917 
	C87.198219,283.697815 88.666489,283.101227 90.508133,282.889343 
	C92.139778,283.339294 93.424355,283.737640 94.709137,283.738312 
	C153.362442,283.768829 212.015793,283.778320 270.668976,283.690918 
	C272.242004,283.688599 273.813385,282.593933 275.825439,282.009033 
	C281.869720,282.356903 287.474060,282.704315 293.078400,283.051727 
z"/>
<path fill="#EA4B5A" opacity="1.000000" stroke="none" 
	d="
M200.749924,88.914429 
	C207.685608,80.412346 214.621292,71.910263 222.157791,63.169907 
	C223.152145,62.244038 223.545685,61.556435 223.939224,60.868832 
	C223.965714,60.548073 224.103607,60.285927 225.042786,60.020885 
	C231.671478,59.748222 237.609985,59.381420 243.549286,59.367962 
	C249.993607,59.353363 256.440613,59.856995 262.882904,59.790653 
	C270.913422,59.707954 278.940094,59.264988 286.968964,58.994839 
	C290.797150,58.866035 292.249878,60.712593 292.056458,64.534630 
	C291.813049,69.345604 291.996094,74.178154 291.573547,78.990829 
	C285.895233,78.654266 280.638519,78.328270 275.259338,77.568268 
	C275.183105,74.726791 275.229370,72.319336 275.484772,69.650711 
	C274.338226,68.594696 272.997711,67.143135 271.624451,67.111465 
	C262.643799,66.904358 253.655167,66.943039 244.671707,67.075432 
	C243.427750,67.093758 242.197937,68.071518 240.725052,68.864075 
	C233.999908,76.772263 227.511307,84.421494 220.862946,91.715302 
	C219.108871,90.572937 217.551315,89.210983 215.913345,89.106194 
	C210.875397,88.783897 205.806686,88.942635 200.749924,88.914429 
z"/>
<path fill="#9CD849" opacity="1.000000" stroke="none" 
	d="
M89.045013,114.003387 
	C88.988693,107.976944 88.932373,101.950508 89.432373,95.465904 
	C105.658714,95.004547 121.328751,95.001358 137.292786,95.294884 
	C143.654129,95.731255 149.721451,95.870903 155.788788,96.010559 
	C155.842361,101.035088 155.895935,106.059608 155.418716,111.543747 
	C149.226685,112.346130 143.565445,112.688904 137.904221,113.031677 
	C135.193222,112.676620 132.488266,112.083809 129.770020,112.014870 
	C123.682922,111.860474 117.587433,111.887573 111.499481,112.024109 
	C110.026306,112.057144 108.569092,112.802124 106.502846,113.612686 
	C100.282440,114.004906 94.663727,114.004150 89.045013,114.003387 
z"/>
<path fill="#84C542" opacity="1.000000" stroke="none" 
	d="
M106.808716,148.010925 
	C106.866020,153.037613 106.923317,158.064301 106.437439,163.548889 
	C100.225288,164.016663 94.556313,164.026550 88.887344,164.036438 
	C79.970673,163.761703 71.054008,163.486984 61.368782,163.186737 
	C60.069710,163.775620 59.539196,164.390030 58.585464,164.992859 
	C52.774647,164.654602 47.387051,164.327911 41.999458,164.001221 
	C41.930836,158.973495 41.862213,153.945786 42.361259,148.460754 
	C64.222191,148.005951 85.515457,148.008438 106.808716,148.010925 
z"/>
<path fill="#B3E957" opacity="1.000000" stroke="none" 
	d="
M137.963348,68.017921 
	C137.780777,63.069134 137.392288,58.112427 137.582001,53.177952 
	C137.621964,52.138268 139.773911,50.325428 140.968002,50.312775 
	C158.584763,50.126141 176.204468,50.137520 193.822006,50.281750 
	C195.067291,50.291943 197.369461,51.704044 197.371979,52.470230 
	C197.393082,58.879486 196.990555,65.290138 196.357056,71.418091 
	C195.971176,64.003723 195.971176,63.999863 188.827148,63.998524 
	C174.336014,63.995811 159.842789,64.131454 145.355255,63.902798 
	C141.775970,63.846302 139.317673,64.638885 137.963348,68.017921 
z"/>
<path fill="#ED5F6D" opacity="1.000000" stroke="none" 
	d="
M291.995117,79.001396 
	C291.996094,74.178154 291.813049,69.345604 292.056458,64.534630 
	C292.249878,60.712593 290.797150,58.866035 286.968964,58.994839 
	C278.940094,59.264988 270.913422,59.707954 262.882904,59.790653 
	C256.440613,59.856995 249.993607,59.353363 243.549286,59.367962 
	C237.609985,59.381420 231.671478,59.748222 225.248505,59.924625 
	C228.319641,53.049934 233.112595,49.516666 241.658920,49.952625 
	C257.426270,50.756958 273.264099,50.214607 289.072235,50.151569 
	C291.849884,50.140495 293.774353,50.234818 293.758118,53.997875 
	C293.623657,85.112587 293.662231,116.228058 293.134583,147.484314 
	C292.425812,146.080673 292.230835,144.536011 292.042664,142.523834 
	C292.038483,135.368118 292.027557,128.679916 292.023590,121.523636 
	C292.020386,113.036415 292.010193,105.017296 292.005554,96.530373 
	C292.005768,90.375519 292.000458,84.688454 291.995117,79.001396 
z"/>
<path fill="#B71C30" opacity="1.000000" stroke="none" 
	d="
M73.091034,243.035248 
	C76.193710,239.121307 79.296371,235.207352 83.043221,231.096436 
	C84.086273,230.165833 84.485146,229.432190 84.884018,228.698547 
	C85.731255,227.548706 86.578491,226.398865 88.055435,225.074158 
	C89.083633,224.161957 89.482132,223.424622 89.880638,222.687317 
	C90.724648,221.538391 91.568657,220.389465 93.079575,219.285583 
	C98.201805,219.553146 102.678604,219.584244 107.103188,220.080673 
	C109.247650,220.321274 111.294212,221.434296 113.264473,222.478134 
	C106.596130,230.604294 100.048416,238.404663 93.130844,246.000702 
	C90.803398,245.197006 88.880959,244.287689 86.881126,244.060898 
	C82.304520,243.541809 77.690102,243.356247 73.091034,243.035248 
z"/>
<path fill="#E34555" opacity="1.000000" stroke="none" 
	d="
M200.461792,89.069763 
	C205.806686,88.942635 210.875397,88.783897 215.913345,89.106194 
	C217.551315,89.210983 219.108871,90.572937 220.761429,92.033875 
	C214.871475,99.776062 208.923309,106.844254 202.808807,113.571350 
	C201.347931,112.486801 200.107025,111.233261 198.749344,111.090523 
	C193.592606,110.548378 188.398102,110.365448 183.217728,110.048225 
	C188.869720,103.107185 194.521698,96.166145 200.461792,89.069763 
z"/>
<path fill="#D53849" opacity="1.000000" stroke="none" 
	d="
M149.216873,151.052521 
	C154.580154,144.457245 159.943420,137.861954 166.075958,131.127472 
	C171.768524,130.992249 176.714050,130.734756 181.602280,131.150757 
	C183.182068,131.285217 184.611328,133.188385 185.998230,134.591766 
	C180.254974,141.591202 174.622910,148.281342 168.972839,154.557999 
	C167.581268,153.429214 166.257339,152.232681 164.825241,152.084946 
	C159.642105,151.550262 154.422638,151.367874 149.216873,151.052521 
z"/>
<path fill="#DC3F4F" opacity="1.000000" stroke="none" 
	d="
M186.109436,134.282471 
	C184.611328,133.188385 183.182068,131.285217 181.602280,131.150757 
	C176.714050,130.734756 171.768524,130.992249 166.369568,130.974136 
	C171.470490,124.099701 177.047073,117.239388 182.920685,110.213654 
	C188.398102,110.365448 193.592606,110.548378 198.749344,111.090523 
	C200.107025,111.233261 201.347931,112.486801 202.700500,113.893799 
	C197.208832,121.132378 191.659134,127.707428 186.109436,134.282471 
z"/>
<path fill="#CE3244" opacity="1.000000" stroke="none" 
	d="
M148.966415,151.171600 
	C154.422638,151.367874 159.642105,151.550262 164.825241,152.084946 
	C166.257339,152.232681 167.581268,153.429214 168.867920,154.878830 
	C163.232941,162.190277 157.684860,168.767410 152.061813,174.931473 
	C150.420471,173.678787 148.893219,172.216156 147.280457,172.114853 
	C142.174698,171.794128 137.036957,171.982269 131.911591,171.973602 
	C136.402008,166.412415 140.892426,160.851227 146.028275,155.092957 
	C147.076187,154.158325 147.478668,153.420761 147.881134,152.683212 
	C148.159409,152.219040 148.437683,151.754868 148.966415,151.171600 
z"/>
<path fill="#7CBF3B" opacity="1.000000" stroke="none" 
	d="
M88.844208,164.500885 
	C94.556313,164.026550 100.225288,164.016663 106.348335,164.008881 
	C106.872551,168.151688 107.172440,172.306870 106.913475,176.426926 
	C106.788696,178.412094 106.036804,180.659607 104.832733,182.220444 
	C100.684021,187.598419 96.210831,192.726074 91.202606,198.092896 
	C89.966087,198.188217 89.388214,198.139725 88.810333,198.091217 
	C88.807243,187.049255 88.804161,176.007294 88.844208,164.500885 
z"/>
<path fill="#AAE450" opacity="1.000000" stroke="none" 
	d="
M137.904129,68.347404 
	C139.317673,64.638885 141.775970,63.846302 145.355255,63.902798 
	C159.842789,64.131454 174.336014,63.995811 188.827148,63.998524 
	C195.971176,63.999863 195.971176,64.003723 196.000671,71.576401 
	C190.779068,78.567482 185.555145,85.117981 180.331223,91.668472 
	C179.864700,91.558372 179.398178,91.448273 178.931656,91.338181 
	C178.931656,84.237518 178.931656,77.136864 178.882095,69.164871 
	C178.361954,67.896858 177.896927,67.162422 177.419952,67.154572 
	C171.046310,67.049652 164.669617,66.978104 158.297867,67.106033 
	C157.520844,67.121628 156.768051,68.344513 156.004028,69.007889 
	C156.004028,69.007889 155.983368,69.004066 155.558899,68.990158 
	C149.304276,67.338890 143.582779,67.520035 137.998611,69.999924 
	C137.947372,69.558914 137.896149,69.117897 137.904129,68.347404 
z"/>
<path fill="#AF1329" opacity="1.000000" stroke="none" 
	d="
M293.080902,239.995804 
	C293.205078,249.026230 293.329224,258.056671 292.989746,267.345154 
	C292.424408,262.109650 289.507751,260.309509 284.288513,260.937073 
	C281.361481,261.289001 278.357910,261.004608 275.255493,260.555115 
	C275.192749,254.075516 275.263336,248.047729 275.543457,241.782272 
	C275.878387,240.712234 276.003815,239.879852 276.580505,239.029877 
	C282.381500,239.340118 287.731201,239.667969 293.080902,239.995804 
z"/>
<path fill="#CB2C3E" opacity="1.000000" stroke="none" 
	d="
M276.129211,239.047485 
	C276.003815,239.879852 275.878387,240.712234 275.403290,241.331299 
	C275.044525,229.338043 274.985229,217.557846 275.039154,205.778183 
	C275.105927,191.187836 275.266571,176.597900 275.828857,162.007629 
	C281.872925,162.337082 287.474792,162.666672 293.076660,162.996262 
	C293.170044,169.361969 293.263458,175.727676 292.788208,182.539627 
	C287.941162,182.659378 283.660522,182.359787 279.385284,181.996597 
	C276.694580,181.768036 275.936981,183.117950 275.992676,185.581573 
	C276.116669,191.066620 276.083679,196.555206 276.085022,202.505737 
	C276.076294,208.986115 276.097229,215.003113 276.087738,221.485336 
	C276.081268,227.649536 276.105255,233.348511 276.129211,239.047485 
z"/>
<path fill="#AF1329" opacity="1.000000" stroke="none" 
	d="
M72.766815,243.304688 
	C77.690102,243.356247 82.304520,243.541809 86.881126,244.060898 
	C88.880959,244.287689 90.803398,245.197006 92.972267,246.365082 
	C92.298035,249.498184 91.030624,252.003448 90.622307,254.641708 
	C90.095047,258.048462 90.254601,261.561554 89.646622,265.021210 
	C83.571533,265.677368 77.968216,266.341187 72.364899,267.005005 
	C72.390800,259.194702 72.416702,251.384430 72.766815,243.304688 
z"/>
<path fill="#8DCC45" opacity="1.000000" stroke="none" 
	d="
M106.895126,147.549316 
	C85.515457,148.008438 64.222191,148.005951 42.459427,148.002228 
	C41.921875,147.544861 41.853821,147.088730 42.345016,146.305801 
	C56.352768,145.972549 69.801674,146.013229 83.249260,145.898666 
	C84.888718,145.884689 86.521065,145.036514 88.156708,144.574936 
	C88.368759,140.350296 88.580811,136.125656 89.345314,131.450500 
	C95.532761,131.001770 101.167755,131.003555 106.802757,131.005325 
	C106.862350,136.366119 106.921944,141.726929 106.895126,147.549316 
z"/>
<path fill="#C2273A" opacity="1.000000" stroke="none" 
	d="
M105.290497,204.061462 
	C107.331421,201.473419 109.372353,198.885391 112.054810,196.097839 
	C113.092506,195.164291 113.488686,194.430252 113.884872,193.696213 
	C114.729424,192.546539 115.573975,191.396866 117.090408,190.079529 
	C124.152954,189.332397 130.538635,188.662292 136.941818,188.311615 
	C137.592575,188.275986 138.348602,190.162201 138.951508,191.471313 
	C134.056992,197.473297 129.266739,203.160522 124.354576,208.392120 
	C122.836555,206.958267 121.526878,205.319351 120.028419,205.123276 
	C115.152946,204.485321 110.208443,204.374924 105.290497,204.061462 
z"/>
<path fill="#A90D23" opacity="1.000000" stroke="none" 
	d="
M275.388824,261.006958 
	C278.357910,261.004608 281.361481,261.289001 284.288513,260.937073 
	C289.507751,260.309509 292.424408,262.109650 292.809143,267.774109 
	C293.207458,272.688599 293.322723,277.432190 293.258179,282.613770 
	C287.474060,282.704315 281.869720,282.356903 275.690796,281.557190 
	C275.207092,274.405609 275.297943,267.706268 275.388824,261.006958 
z"/>
<path fill="#C82D40" opacity="1.000000" stroke="none" 
	d="
M139.055771,191.156570 
	C138.348602,190.162201 137.592575,188.275986 136.941818,188.311615 
	C130.538635,188.662292 124.152954,189.332397 117.373123,189.953156 
	C121.762535,184.085999 126.541130,178.177567 131.615662,172.121384 
	C137.036957,171.982269 142.174698,171.794128 147.280457,172.114853 
	C148.893219,172.216156 150.420471,173.678787 151.955139,175.237793 
	C147.634216,181.023651 143.345001,186.090118 139.055771,191.156570 
z"/>
<path fill="#5AA52B" opacity="1.000000" stroke="none" 
	d="
M42.010891,260.000366 
	C41.908588,253.647888 41.806282,247.295410 41.990959,240.325607 
	C42.467060,239.125122 42.656181,238.541962 43.322956,237.973251 
	C48.888588,238.654755 53.976566,239.321808 59.086052,240.457733 
	C59.101707,247.612640 59.095856,254.298676 58.668930,260.941132 
	C52.835533,260.598480 47.423214,260.299408 42.010891,260.000366 
z"/>
<path fill="#BD2437" opacity="1.000000" stroke="none" 
	d="
M104.989761,204.226837 
	C110.208443,204.374924 115.152946,204.485321 120.028419,205.123276 
	C121.526878,205.319351 122.836555,206.958267 124.229568,208.681976 
	C120.612679,213.669098 116.998886,217.910721 113.385101,222.152344 
	C111.294212,221.434296 109.247650,220.321274 107.103188,220.080673 
	C102.678604,219.584244 98.201805,219.553146 93.362976,219.160492 
	C96.882652,214.124329 100.785835,209.258270 104.989761,204.226837 
z"/>
<path fill="#95D347" opacity="1.000000" stroke="none" 
	d="
M137.852570,113.495804 
	C143.565445,112.688904 149.226685,112.346130 155.339233,112.004883 
	C156.779449,117.551872 155.550934,122.199875 151.424805,126.422554 
	C146.972427,130.979111 143.185837,136.186234 137.800903,140.813309 
	C137.800903,131.862183 137.800903,122.911057 137.852570,113.495804 
z"/>
<path fill="#479623" opacity="1.000000" stroke="none" 
	d="
M41.872940,301.137604 
	C41.834339,294.394745 41.795738,287.651886 42.347878,280.457855 
	C48.330845,280.664459 53.723076,281.322235 59.141556,282.449860 
	C59.184723,287.703186 59.069065,292.492126 59.266346,297.268127 
	C59.392567,300.323853 58.204071,301.362701 55.230289,301.238190 
	C50.784233,301.051971 46.325996,301.156647 41.872940,301.137604 
z"/>
<path fill="#D23243" opacity="1.000000" stroke="none" 
	d="
M293.212219,162.546692 
	C287.474792,162.666672 281.872925,162.337082 275.699005,161.554535 
	C275.214081,154.741196 275.301208,148.380798 275.783325,142.033051 
	C281.464142,142.360916 286.750000,142.676132 292.035889,142.991348 
	C292.230835,144.536011 292.425812,146.080673 292.939606,147.848495 
	C293.288208,152.746811 293.317993,157.421982 293.212219,162.546692 
z"/>
<path fill="#509E27" opacity="1.000000" stroke="none" 
	d="
M59.115307,281.979980 
	C53.723076,281.322235 48.330845,280.664459 42.475025,280.003662 
	C41.928596,273.637085 41.845760,267.273560 41.886909,260.455200 
	C47.423214,260.299408 52.835533,260.598480 58.691704,261.410828 
	C59.128807,268.609406 59.122059,275.294678 59.115307,281.979980 
z"/>
<path fill="#A90D23" opacity="1.000000" stroke="none" 
	d="
M72.264267,267.463226 
	C77.968216,266.341187 83.571533,265.677368 89.777122,265.471863 
	C90.306648,271.504181 90.233902,277.078186 90.161156,282.652222 
	C88.666489,283.101227 87.198219,283.697815 85.672066,283.970917 
	C81.499954,284.717468 77.303444,285.327698 72.742035,286.003845 
	C72.299522,279.984344 72.231583,273.952881 72.264267,267.463226 
z"/>
<path fill="#C42639" opacity="1.000000" stroke="none" 
	d="
M276.114685,202.042358 
	C276.083679,196.555206 276.116669,191.066620 275.992676,185.581573 
	C275.936981,183.117950 276.694580,181.768036 279.385284,181.996597 
	C283.660522,182.359787 287.941162,182.659378 292.648163,182.990814 
	C293.173187,189.362457 293.269562,195.729141 292.787354,202.548752 
	C286.844116,202.681885 281.479401,202.362122 276.114685,202.042358 
z"/>
<path fill="#BD1F33" opacity="1.000000" stroke="none" 
	d="
M276.085052,202.505737 
	C281.479401,202.362122 286.844116,202.681885 292.642822,202.998749 
	C293.175568,209.029831 293.274261,215.063828 292.799927,221.541214 
	C286.857300,221.663116 281.487732,221.341614 276.118164,221.020111 
	C276.097229,215.003113 276.076294,208.986115 276.085052,202.505737 
z"/>
<path fill="#9DCB7E" opacity="1.000000" stroke="none" 
	d="
M59.141556,282.449860 
	C59.122059,275.294678 59.128807,268.609406 59.112778,261.454407 
	C59.095856,254.298676 59.101707,247.612640 59.110413,239.990784 
	C59.089722,232.369247 59.066174,225.683502 59.063076,218.530365 
	C59.063065,212.375183 59.042599,206.687378 59.043236,200.532028 
	C59.046352,194.376862 59.028370,188.689240 59.029091,182.533875 
	C59.034760,176.378891 59.021721,170.691681 59.008686,165.004456 
	C59.539196,164.390030 60.069710,163.775620 60.915321,163.158356 
	C60.999630,165.451309 60.568745,167.747025 60.567699,170.042953 
	C60.548489,212.283798 60.517429,254.524902 60.694286,296.765106 
	C60.713161,301.272858 59.587677,303.197754 54.875404,302.650665 
	C50.639099,302.158875 46.349884,302.122864 41.978474,301.511719 
	C46.325996,301.156647 50.784233,301.051971 55.230289,301.238190 
	C58.204071,301.362701 59.392567,300.323853 59.266346,297.268127 
	C59.069065,292.492126 59.184723,287.703186 59.141556,282.449860 
z"/>
<path fill="#93D243" opacity="1.000000" stroke="none" 
	d="
M106.886414,130.543747 
	C101.167755,131.003555 95.532761,131.001770 89.426392,131.000137 
	C88.926109,125.641678 88.897186,120.283089 88.956635,114.463943 
	C94.663727,114.004150 100.282440,114.004906 106.355026,114.007698 
	C106.862610,119.367210 106.916336,124.724693 106.886414,130.543747 
z"/>
<path fill="#B71C30" opacity="1.000000" stroke="none" 
	d="
M276.087708,221.485336 
	C281.487732,221.341614 286.857300,221.663116 292.655579,221.991211 
	C293.185059,227.699097 293.285828,233.400391 293.233765,239.548752 
	C287.731201,239.667969 282.381500,239.340118 276.580505,239.029877 
	C276.105255,233.348511 276.081268,227.649536 276.087708,221.485336 
z"/>
<path fill="#7CBF3B" opacity="1.000000" stroke="none" 
	d="
M58.585464,164.992859 
	C59.021721,170.691681 59.034760,176.378891 58.605591,182.523499 
	C52.779167,182.654312 47.394943,182.327744 42.010719,182.001175 
	C41.939026,176.307068 41.867329,170.612946 41.897545,164.460022 
	C47.387051,164.327911 52.774647,164.654602 58.585464,164.992859 
z"/>
<path fill="#74BA36" opacity="1.000000" stroke="none" 
	d="
M41.903435,182.405273 
	C47.394943,182.327744 52.779167,182.654312 58.586891,182.991241 
	C59.028370,188.689240 59.046352,194.376862 58.654282,200.489136 
	C53.130642,200.270798 48.017063,199.627792 42.888336,198.527527 
	C42.509140,194.374100 42.145084,190.677933 41.781033,186.981766 
	C41.786072,185.590958 41.791115,184.200165 41.903435,182.405273 
z"/>
<path fill="#A2DD4C" opacity="1.000000" stroke="none" 
	d="
M155.868805,95.549454 
	C149.721451,95.870903 143.654129,95.731255 137.298767,95.083435 
	C137.027130,94.296402 137.049530,94.018021 137.078003,93.740120 
	C137.333496,90.129997 137.589005,86.519875 138.347107,82.455208 
	C144.495117,81.669701 150.140549,81.338737 155.785965,81.007774 
	C155.840256,85.701302 155.894547,90.394836 155.868805,95.549454 
z"/>
<path fill="#A9E34D" opacity="1.000000" stroke="none" 
	d="
M155.864532,80.552177 
	C150.140549,81.338737 144.495117,81.669701 138.422638,82.000854 
	C137.946915,78.304581 137.898254,74.608116 137.924103,70.455795 
	C143.582779,67.520035 149.304276,67.338890 155.552750,68.981628 
	C155.961761,72.690193 155.952438,76.393387 155.864532,80.552177 
z"/>
<path fill="#9DCB7E" opacity="1.000000" stroke="none" 
	d="
M41.556355,187.323578 
	C42.145084,190.677933 42.509140,194.374100 42.878929,198.997375 
	C42.881229,205.944504 42.877789,211.964523 42.857559,218.453644 
	C42.842278,225.268097 42.843792,231.613449 42.845303,237.958801 
	C42.656181,238.541962 42.467060,239.125122 42.005219,239.858154 
	C41.524494,237.912308 41.134731,235.816360 41.137535,233.720947 
	C41.158073,218.369034 41.257282,203.017212 41.556355,187.323578 
z"/>
<path fill="#B3E957" opacity="1.000000" stroke="none" 
	d="
M136.617218,93.612900 
	C137.049530,94.018021 137.027130,94.296402 137.004761,94.786720 
	C121.328751,95.001358 105.658714,95.004547 89.525475,95.005478 
	C90.237061,94.461113 91.409546,93.453537 92.587013,93.447678 
	C107.109726,93.375420 121.633179,93.449425 136.617218,93.612900 
z"/>
<path fill="#9DCB7E" opacity="1.000000" stroke="none" 
	d="
M87.686218,144.470200 
	C86.521065,145.036514 84.888718,145.884689 83.249260,145.898666 
	C69.801674,146.013229 56.352768,145.972549 42.432537,145.967712 
	C43.307095,145.398865 44.650166,144.366211 46.000153,144.357086 
	C59.738029,144.264282 73.477036,144.338226 87.686218,144.470200 
z"/>
<path fill="#B3E957" opacity="1.000000" stroke="none" 
	d="
M156.468903,68.943939 
	C156.768051,68.344513 157.520844,67.121628 158.297867,67.106033 
	C164.669617,66.978104 171.046310,67.049652 177.419952,67.154572 
	C177.896927,67.162422 178.361954,67.896858 178.895477,68.703506 
	C171.616882,69.035652 164.275314,68.957825 156.468903,68.943939 
z"/>
<path fill="#9DCB7E" opacity="1.000000" stroke="none" 
	d="
M88.678719,198.364471 
	C89.388214,198.139725 89.966087,198.188217 90.971825,198.325714 
	C90.805466,199.446426 90.211250,200.478119 89.617035,201.509811 
	C89.309120,201.453339 89.001198,201.396881 88.693275,201.340408 
	C88.644554,200.439514 88.595825,199.538605 88.678719,198.364471 
z"/>
<path fill="#BD2437" opacity="1.000000" stroke="none" 
	d="
M84.597374,228.822800 
	C84.485146,229.432190 84.086273,230.165833 83.342957,230.949219 
	C83.435921,230.315002 83.873329,229.631027 84.597374,228.822800 
z"/>
<path fill="#BD2437" opacity="1.000000" stroke="none" 
	d="
M89.593178,222.813004 
	C89.482132,223.424622 89.083633,224.161957 88.339119,224.948486 
	C88.430649,224.311356 88.868187,223.625031 89.593178,222.813004 
z"/>
<path fill="#C82D40" opacity="1.000000" stroke="none" 
	d="
M113.599144,193.822708 
	C113.488686,194.430252 113.092506,195.164291 112.353203,195.950897 
	C112.444519,195.318726 112.878975,194.633957 113.599144,193.822708 
z"/>
<path fill="#D53849" opacity="1.000000" stroke="none" 
	d="
M147.594055,152.811218 
	C147.478668,153.420761 147.076187,154.158325 146.326721,154.944504 
	C146.422150,154.308472 146.864563,153.623840 147.594055,152.811218 
z"/>
<path fill="#ED5F6D" opacity="1.000000" stroke="none" 
	d="
M223.653015,60.969795 
	C223.545685,61.556435 223.152145,62.244038 222.437469,62.987190 
	C222.533142,62.385414 222.949966,61.728088 223.653015,60.969795 
z"/>
<path fill="#FDFDFC" opacity="1.000000" stroke="none" 
	d="
M90.508133,282.889343 
	C90.233902,277.078186 90.306648,271.504181 90.248894,265.479492 
	C90.254601,261.561554 90.095047,258.048462 90.622307,254.641708 
	C91.030624,252.003448 92.298035,249.498184 93.342125,246.569412 
	C100.048416,238.404663 106.596130,230.604294 113.264465,222.478134 
	C116.998886,217.910721 120.612679,213.669098 124.351471,209.137604 
	C129.266739,203.160522 134.056992,197.473297 138.951508,191.471313 
	C143.345001,186.090118 147.634216,181.023651 152.030106,175.650864 
	C157.684860,168.767410 163.232941,162.190277 168.885925,155.292313 
	C174.622910,148.281342 180.254974,141.591202 185.998230,134.591766 
	C191.659134,127.707428 197.208832,121.132378 202.866821,114.234894 
	C208.923309,106.844254 214.871475,99.776062 220.921173,92.389297 
	C227.511307,84.421494 233.999908,76.772263 241.191284,68.937668 
	C251.127457,68.770409 260.361694,68.728378 269.593597,68.856247 
	C271.492126,68.882545 273.381866,69.543465 275.275635,69.911873 
	C275.229370,72.319336 275.183105,74.726791 275.139832,78.023010 
	C275.224884,84.611618 275.306915,90.311470 275.272034,96.466316 
	C275.231689,105.284500 275.308228,113.647690 275.266785,122.465317 
	C275.228668,129.286636 275.308502,135.653534 275.388367,142.020416 
	C275.301208,148.380798 275.214081,154.741196 275.256775,161.554688 
	C275.266571,176.597900 275.105927,191.187836 275.039154,205.778183 
	C274.985229,217.557846 275.044525,229.338043 275.193756,241.568970 
	C275.263336,248.047729 275.192749,254.075516 275.255493,260.555115 
	C275.297943,267.706268 275.207092,274.405609 275.250854,281.556763 
	C273.813385,282.593933 272.242004,283.688599 270.668976,283.690918 
	C212.015793,283.778320 153.362442,283.768829 94.709137,283.738312 
	C93.424355,283.737640 92.139778,283.339294 90.508133,282.889343 
M256.750153,260.271973 
	C256.615936,259.886749 256.481750,259.501556 256.454468,258.477356 
	C256.416992,258.264679 256.379517,258.052032 256.691467,256.989777 
	C256.676270,221.955688 256.665070,186.921616 256.625214,151.887558 
	C256.624084,150.916870 256.315430,149.946564 256.504181,148.140793 
	C256.390259,145.092819 256.276337,142.044846 256.524841,138.138550 
	C256.407623,133.776306 256.290405,129.414078 256.526825,124.370987 
	C256.487854,123.615929 256.448853,122.860863 256.731140,121.199684 
	C256.731140,112.280029 256.731140,103.360382 256.731140,94.440727 
	C256.373230,94.276718 256.015320,94.112717 255.657394,93.948715 
	C254.807098,94.987633 253.956787,96.026550 252.561737,97.441032 
	C245.088409,106.310616 237.615082,115.180199 229.537292,124.344086 
	C225.751007,128.910889 221.964722,133.477707 217.567764,138.337173 
	C215.467484,140.908463 213.367203,143.479767 210.651642,146.378922 
	C209.594818,148.595413 208.538010,150.811905 207.247772,153.932571 
	C207.247772,161.562561 207.247772,169.192535 207.247772,176.822525 
	C207.676453,176.938034 208.105133,177.053543 208.533813,177.169052 
	C214.364761,170.128876 220.195709,163.088684 226.624191,155.756042 
	C228.427414,153.508408 230.230637,151.260788 232.628418,148.716995 
	C234.081619,146.993225 235.534821,145.269470 237.594070,143.758270 
	C237.803116,143.804367 238.012177,143.850479 238.095093,144.745239 
	C238.184921,146.163712 238.274765,147.582184 238.146271,149.897217 
	C238.219589,153.268875 238.292892,156.640518 238.154282,160.911957 
	C238.228409,164.615250 238.302536,168.318558 238.159515,172.932083 
	C238.082916,203.761398 237.995010,234.590714 237.973312,265.420074 
	C237.972504,266.585907 238.613129,267.752167 239.878113,269.136322 
	C244.916367,269.049347 249.954636,268.962372 255.807907,268.855804 
	C256.097931,266.203857 256.387970,263.551941 256.750153,260.271973 
M150.489151,244.665558 
	C151.362595,243.526794 152.236023,242.388046 153.723190,240.973618 
	C156.171661,237.993942 158.620132,235.014282 161.657043,231.721848 
	C164.141830,227.540283 170.146240,225.340317 168.990128,218.096588 
	C168.934052,214.070267 168.877975,210.043930 168.999619,205.135132 
	C168.999619,202.265594 168.999619,199.396057 168.999619,196.526520 
	C168.622330,196.406097 168.245056,196.285690 167.867767,196.165268 
	C165.246521,199.443832 162.625290,202.722397 159.411209,206.306732 
	C155.921707,210.530258 152.432220,214.753784 148.349960,219.275360 
	C145.913300,222.223358 143.476654,225.171371 140.441528,228.392349 
	C137.266983,232.251556 134.092438,236.110764 130.380783,240.234558 
	C129.680283,241.176865 128.979782,242.119171 127.681831,243.390427 
	C126.729126,244.898102 125.776413,246.405777 124.217751,248.177292 
	C121.873390,250.804749 119.529030,253.432205 116.581535,256.367126 
	C114.385780,258.949432 112.190033,261.531738 109.501205,264.693909 
	C139.297577,264.693909 168.068146,264.693909 196.971527,264.693909 
	C196.971527,261.908539 196.971527,259.454712 197.212936,256.137787 
	C197.130035,253.758865 197.047134,251.379959 197.200134,248.125702 
	C197.125870,245.417877 197.051605,242.710037 197.218643,239.152100 
	C197.141190,237.102417 197.063751,235.052719 197.197067,232.113937 
	C197.117264,229.077240 197.037460,226.040527 197.184097,222.109772 
	C197.111191,218.741180 197.038284,215.372589 197.188950,211.099197 
	C197.114304,207.067352 197.039642,203.035492 197.173706,198.100830 
	C197.105255,194.401672 197.036804,190.702499 197.128616,186.237900 
	C196.949738,185.764297 196.770844,185.290710 197.306076,184.397583 
	C197.306076,171.024902 197.306076,157.652222 197.306076,144.279541 
	C196.765808,144.117859 196.225555,143.956161 195.685287,143.794479 
	C191.807159,148.203690 187.929031,152.612915 183.434891,157.331070 
	C179.861923,160.029968 178.023056,163.421188 179.011703,168.894043 
	C179.047119,171.599121 179.082520,174.304214 178.988922,177.909698 
	C179.055496,180.944489 179.122055,183.979263 179.040878,187.923462 
	C179.090012,191.619919 179.139160,195.316360 179.037064,199.916061 
	C179.115906,203.963058 179.194748,208.010056 179.116852,212.864975 
	C179.144592,215.914124 179.172318,218.963287 179.039703,222.914993 
	C179.065277,226.277252 179.090851,229.639526 178.963272,233.850418 
	C179.017014,235.570724 179.070755,237.291031 178.985840,239.868301 
	C178.980911,241.892075 178.975967,243.915863 178.068848,246.205460 
	C169.982758,246.245407 161.896057,246.344772 153.811172,246.264526 
	C152.523117,246.251740 151.243073,245.432541 150.489151,244.665558 
z"/>
<path fill="#EA4756" opacity="1.000000" stroke="none" 
	d="
M275.388947,96.011314 
	C275.306915,90.311470 275.224884,84.611618 275.262329,78.457024 
	C280.638519,78.328270 285.895233,78.654266 291.573547,78.990829 
	C292.000458,84.688454 292.005768,90.375519 291.583435,96.521133 
	C285.900177,96.656898 280.644562,96.334106 275.388947,96.011314 
z"/>
<path fill="#ED5F6D" opacity="1.000000" stroke="none" 
	d="
M275.484772,69.650711 
	C273.381866,69.543465 271.492126,68.882545 269.593597,68.856247 
	C260.361694,68.728378 251.127457,68.770409 241.427811,68.678711 
	C242.197937,68.071518 243.427750,67.093758 244.671707,67.075432 
	C253.655167,66.943039 262.643799,66.904358 271.624451,67.111465 
	C272.997711,67.143135 274.338226,68.594696 275.484772,69.650711 
z"/>
<path fill="#E13F4F" opacity="1.000000" stroke="none" 
	d="
M275.272034,96.466316 
	C280.644562,96.334106 285.900177,96.656898 291.577881,96.988922 
	C292.010193,105.017296 292.020386,113.036415 291.554596,121.527054 
	C285.847321,122.002670 280.616058,122.006767 275.384766,122.010872 
	C275.308228,113.647690 275.231689,105.284500 275.272034,96.466316 
z"/>
<path fill="#D53849" opacity="1.000000" stroke="none" 
	d="
M275.266785,122.465317 
	C280.616058,122.006767 285.847321,122.002670 291.547607,121.995148 
	C292.027557,128.679916 292.038483,135.368118 292.042664,142.523834 
	C286.750000,142.676132 281.464142,142.360916 275.783325,142.033051 
	C275.308502,135.653534 275.228668,129.286636 275.266785,122.465317 
z"/>
<path fill="#64AC33" opacity="1.000000" stroke="none" 
	d="
M43.322956,237.973251 
	C42.843792,231.613449 42.842278,225.268097 43.334755,218.459335 
	C48.900036,218.329880 53.971329,218.663834 59.042622,218.997772 
	C59.066174,225.683502 59.089722,232.369247 59.088905,239.521912 
	C53.976566,239.321808 48.888588,238.654755 43.322956,237.973251 
z"/>
<path fill="#6CB433" opacity="1.000000" stroke="none" 
	d="
M59.063076,218.530380 
	C53.971329,218.663834 48.900036,218.329880 43.351547,217.990234 
	C42.877789,211.964523 42.881229,205.944504 42.894073,199.454636 
	C48.017063,199.627792 53.130642,200.270798 58.633179,200.956696 
	C59.042599,206.687378 59.063065,212.375183 59.063076,218.530380 
z"/>
<path fill="#479623" opacity="1.000000" stroke="none" 
	d="
M196.971527,257.000885 
	C196.971527,259.454712 196.971527,261.908539 196.971527,264.693909 
	C168.068146,264.693909 139.297577,264.693909 109.501205,264.693909 
	C112.190033,261.531738 114.385780,258.949432 117.339050,256.197876 
	C144.388214,256.352692 170.679871,256.676788 196.971527,257.000885 
z"/>
<path fill="#4E9C26" opacity="1.000000" stroke="none" 
	d="
M197.092224,256.569336 
	C170.679871,256.676788 144.388214,256.352692 117.640617,256.044128 
	C119.529030,253.432205 121.873390,250.804749 124.916290,248.217010 
	C133.412384,248.161865 141.209930,248.067017 149.475342,247.980423 
	C159.626465,247.983704 169.309753,247.978745 179.283630,248.275177 
	C185.370895,248.718063 191.167557,248.859543 196.964233,249.001038 
	C197.047134,251.379959 197.130035,253.758865 197.092224,256.569336 
z"/>
<path fill="#9CD849" opacity="1.000000" stroke="none" 
	d="
M218.178436,138.044525 
	C221.964722,133.477707 225.751007,128.910889 230.285706,124.182388 
	C239.413803,124.364403 247.793518,124.708115 256.173218,125.051834 
	C256.290405,129.414078 256.407623,133.776306 255.971344,138.573654 
	C243.004715,138.687347 230.591583,138.365936 218.178436,138.044525 
z"/>
<path fill="#93D243" opacity="1.000000" stroke="none" 
	d="
M217.873108,138.190857 
	C230.591583,138.365936 243.004715,138.687347 255.790115,139.002808 
	C256.276337,142.044846 256.390259,145.092819 255.926941,148.569656 
	C249.688004,148.999237 244.026306,148.999954 238.364594,149.000656 
	C238.274765,147.582184 238.184921,146.163712 238.344269,144.157425 
	C238.471329,143.160248 238.349213,142.750900 238.227112,142.341537 
	C237.814072,142.742920 237.401031,143.144302 236.988007,143.545700 
	C235.534821,145.269470 234.081619,146.993225 231.913605,148.808365 
	C227.470993,148.600235 223.721741,148.457611 220.022217,147.951492 
	C217.072342,147.547943 214.183090,146.701111 211.266937,146.051071 
	C213.367203,143.479767 215.467484,140.908463 217.873108,138.190857 
z"/>
<path fill="#A3DE4C" opacity="1.000000" stroke="none" 
	d="
M256.350037,124.711411 
	C247.793518,124.708115 239.413803,124.364403 230.587921,124.035233 
	C237.615082,115.180199 245.088409,106.310616 253.171295,97.446716 
	C254.194855,98.963623 254.921539,100.465675 254.966125,101.987717 
	C255.119888,107.236870 254.938614,112.496056 255.104446,117.744484 
	C255.150757,119.210548 255.953918,120.652687 256.409882,122.105804 
	C256.448853,122.860863 256.487854,123.615929 256.350037,124.711411 
z"/>
<path fill="#8DCC45" opacity="1.000000" stroke="none" 
	d="
M238.255432,149.448944 
	C244.026306,148.999954 249.688004,148.999237 255.749939,148.987305 
	C256.315430,149.946564 256.624084,150.916870 256.625214,151.887558 
	C256.665070,186.921616 256.676270,221.955688 256.348541,257.178467 
	C255.888489,256.590851 255.771347,255.814575 255.739136,254.576477 
	C255.770782,249.756180 255.717468,245.397690 255.747559,240.576691 
	C255.777649,235.759293 255.724335,231.404388 255.743423,226.587738 
	C255.774414,221.767044 255.733017,217.408081 255.760681,212.585266 
	C255.792053,207.429443 255.754364,202.737488 255.790344,197.581329 
	C255.819016,192.765137 255.774017,188.413132 255.794235,183.601746 
	C255.830597,179.445969 255.801727,175.749588 255.839935,171.588974 
	C255.926483,168.976471 255.761185,166.806839 256.006226,164.684586 
	C256.437500,160.949387 254.961121,159.682755 251.253937,159.933014 
	C246.975754,160.221817 242.663605,160.007828 238.366211,160.012177 
	C238.292892,156.640518 238.219589,153.268875 238.255432,149.448944 
z"/>
<path fill="#7CBF3B" opacity="1.000000" stroke="none" 
	d="
M255.772858,172.053192 
	C255.801727,175.749588 255.830597,179.445969 255.353836,183.579987 
	C254.183762,184.012070 253.519302,184.002625 252.854858,184.001526 
	C238.769547,183.978043 238.769547,183.978241 239.064026,198.494293 
	C239.061005,203.314209 239.075226,207.671524 239.067535,212.490540 
	C239.062088,217.310760 239.078568,221.669312 239.071045,226.489365 
	C239.062836,231.307526 239.078659,235.664169 239.072479,240.483688 
	C239.064499,245.303635 239.078491,249.660736 239.067749,254.481918 
	C239.013626,259.603424 238.984238,264.260834 238.954849,268.918243 
	C238.613129,267.752167 237.972504,266.585907 237.973312,265.420074 
	C237.995010,234.590714 238.082916,203.761398 238.708313,172.471786 
	C244.762360,172.025391 250.267609,172.039291 255.772858,172.053192 
z"/>
<path fill="#69B134" opacity="1.000000" stroke="none" 
	d="
M168.814117,219.009781 
	C170.146240,225.340317 164.141830,227.540283 160.974762,231.709503 
	C155.443069,231.466003 150.567245,231.456345 145.758789,230.882278 
	C144.099564,230.684174 142.608093,229.080826 141.040009,228.119385 
	C143.476654,225.171371 145.913300,222.223358 149.118729,219.135529 
	C156.196365,219.000381 162.505249,219.005081 168.814117,219.009781 
z"/>
<path fill="#8DCC45" opacity="1.000000" stroke="none" 
	d="
M226.026672,156.048492 
	C220.195709,163.088684 214.364761,170.128876 208.533813,177.169052 
	C208.105133,177.053543 207.676453,176.938034 207.247772,176.822525 
	C207.247772,169.192535 207.247772,161.562561 207.795914,153.471375 
	C212.613708,153.005981 216.911850,152.715988 221.139099,153.137238 
	C222.848038,153.307556 224.402130,155.031540 226.026672,156.048492 
z"/>
<path fill="#479623" opacity="1.000000" stroke="none" 
	d="
M239.416473,269.027283 
	C238.984238,264.260834 239.013626,259.603424 239.522888,254.475494 
	C245.219910,254.349411 250.437057,254.693863 255.654205,255.038300 
	C255.771347,255.814575 255.888489,256.590851 256.173828,257.603241 
	C256.379517,258.052032 256.416992,258.264679 256.255981,258.962982 
	C256.031616,259.888336 256.005676,260.328033 255.686401,261.060486 
	C255.259659,263.860626 255.126282,266.367981 254.992889,268.875366 
	C249.954636,268.962372 244.916367,269.049347 239.416473,269.027283 
z"/>
<path fill="#79BD3B" opacity="1.000000" stroke="none" 
	d="
M179.273590,212.057068 
	C179.194748,208.010056 179.115906,203.963058 179.567444,199.461487 
	C185.720230,199.005829 191.342606,199.004730 196.964996,199.003647 
	C197.039642,203.035492 197.114304,207.067352 196.611725,211.553131 
	C190.447540,212.023743 184.860565,212.040405 179.273590,212.057068 
z"/>
<path fill="#85C73D" opacity="1.000000" stroke="none" 
	d="
M197.069351,198.552246 
	C191.342606,199.004730 185.720230,199.005829 179.643066,199.009857 
	C179.139160,195.316360 179.090012,191.619919 179.569275,187.465332 
	C185.721222,187.005920 191.344788,187.004623 196.968353,187.003342 
	C197.036804,190.702499 197.105255,194.401672 197.069351,198.552246 
z"/>
<path fill="#85C73D" opacity="1.000000" stroke="none" 
	d="
M255.839935,171.588974 
	C250.267609,172.039291 244.762360,172.025391 238.816879,172.016663 
	C238.302536,168.318558 238.228409,164.615250 238.260254,160.462067 
	C242.663605,160.007828 246.975754,160.221817 251.253937,159.933014 
	C254.961121,159.682755 256.437500,160.949387 256.006226,164.684586 
	C255.761185,166.806839 255.926483,168.976471 255.839935,171.588974 
z"/>
<path fill="#74BA36" opacity="1.000000" stroke="none" 
	d="
M168.902130,218.553192 
	C162.505249,219.005081 156.196365,219.000381 149.415100,218.986481 
	C152.432220,214.753784 155.921707,210.530258 160.151688,206.157639 
	C163.535416,206.011566 166.178650,206.014587 168.821899,206.017609 
	C168.877975,210.043930 168.934052,214.070267 168.902130,218.553192 
z"/>
<path fill="#62AB30" opacity="1.000000" stroke="none" 
	d="
M179.116425,233.001785 
	C179.090851,229.639526 179.065277,226.277252 179.571655,222.461777 
	C185.721634,222.340317 191.339645,222.672073 196.957672,223.003845 
	C197.037460,226.040527 197.117264,229.077240 196.624847,232.557800 
	C190.407242,233.001709 184.761826,233.001755 179.116425,233.001785 
z"/>
<path fill="#68AE3D" opacity="1.000000" stroke="none" 
	d="
M140.740768,228.255859 
	C142.608093,229.080826 144.099564,230.684174 145.758789,230.882278 
	C150.567245,231.456345 155.443069,231.466003 160.680542,231.865875 
	C158.620132,235.014282 156.171661,237.993942 153.341614,240.701569 
	C151.878403,239.620743 150.747681,238.059402 149.723175,238.126236 
	C143.441391,238.536026 137.183640,239.314346 130.917892,239.969955 
	C134.092438,236.110764 137.266983,232.251556 140.740768,228.255859 
z"/>
<path fill="#6CB433" opacity="1.000000" stroke="none" 
	d="
M197.070892,222.556808 
	C191.339645,222.672073 185.721634,222.340317 179.651825,222.010498 
	C179.172318,218.963287 179.144592,215.914124 179.195221,212.461029 
	C184.860565,212.040405 190.447540,212.023743 196.499939,212.005539 
	C197.038284,215.372589 197.111191,218.741180 197.070892,222.556808 
z"/>
<path fill="#A2DD4C" opacity="1.000000" stroke="none" 
	d="
M179.173126,168.005707 
	C178.023056,163.421188 179.861923,160.029968 184.201813,157.172623 
	C196.002136,156.941437 196.002136,156.941437 195.539703,167.995026 
	C189.772018,167.999756 184.472580,168.002731 179.173126,168.005707 
z"/>
<path fill="#53A028" opacity="1.000000" stroke="none" 
	d="
M197.082184,248.563370 
	C191.167557,248.859543 185.370895,248.718063 179.291656,247.936218 
	C178.996399,246.843796 178.983719,246.391708 178.971039,245.939636 
	C178.975967,243.915863 178.980911,241.892075 179.512177,239.435303 
	C185.684799,239.335617 191.331085,239.668915 196.977356,240.002213 
	C197.051605,242.710037 197.125870,245.417877 197.082184,248.563370 
z"/>
<path fill="#8FCF44" opacity="1.000000" stroke="none" 
	d="
M197.048492,186.620621 
	C191.344788,187.004623 185.721222,187.005920 179.643127,187.010635 
	C179.122055,183.979263 179.055496,180.944489 179.512421,177.455505 
	C185.289398,177.018250 190.542892,177.035202 195.832626,177.470947 
	C196.109894,180.198868 196.350922,182.507980 196.591949,184.817108 
	C196.770844,185.290710 196.949738,185.764297 197.048492,186.620621 
z"/>
<path fill="#AEE559" opacity="1.000000" stroke="none" 
	d="
M196.949005,184.607346 
	C196.350922,182.507980 196.109894,180.198868 195.884857,177.064545 
	C195.936554,173.490677 195.972244,170.741974 196.007935,167.993286 
	C196.002136,156.941437 196.002136,156.941437 184.509827,157.018158 
	C187.929031,152.612915 191.807159,148.203690 195.685287,143.794479 
	C196.225555,143.956161 196.765808,144.117859 197.306076,144.279541 
	C197.306076,157.652222 197.306076,171.024902 196.949005,184.607346 
z"/>
<path fill="#9CD849" opacity="1.000000" stroke="none" 
	d="
M195.539703,167.995026 
	C195.972244,170.741974 195.936554,173.490677 195.848633,176.645752 
	C190.542892,177.035202 185.289398,177.018250 179.576904,177.005295 
	C179.082520,174.304214 179.047119,171.599121 179.092407,168.449875 
	C184.472580,168.002731 189.772018,167.999756 195.539703,167.995026 
z"/>
<path fill="#5AA52B" opacity="1.000000" stroke="none" 
	d="
M130.649338,240.102264 
	C137.183640,239.314346 143.441391,238.536026 149.723175,238.126236 
	C150.747681,238.059402 151.878403,239.620743 153.034744,240.839417 
	C152.236023,242.388046 151.362595,243.526794 149.969223,244.821976 
	C149.279434,244.985947 149.109573,244.993515 148.515869,244.999039 
	C143.870834,244.694565 139.644333,244.450302 135.430496,244.067078 
	C133.036072,243.849335 130.662338,243.404205 128.279282,243.061478 
	C128.979782,242.119171 129.680283,241.176865 130.649338,240.102264 
z"/>
<path fill="#93D04A" opacity="1.000000" stroke="none" 
	d="
M226.325439,155.902283 
	C224.402130,155.031540 222.848038,153.307556 221.139099,153.137238 
	C216.911850,152.715988 212.613708,153.005981 207.912628,153.019287 
	C208.538010,150.811905 209.594818,148.595413 210.959290,146.214996 
	C214.183090,146.701111 217.072342,147.547943 220.022217,147.951492 
	C223.721741,148.457611 227.470993,148.600235 231.616318,148.956451 
	C230.230637,151.260788 228.427414,153.508408 226.325439,155.902283 
z"/>
<path fill="#5FA737" opacity="1.000000" stroke="none" 
	d="
M197.097992,239.577148 
	C191.331085,239.668915 185.684799,239.335617 179.581512,239.006836 
	C179.070755,237.291031 179.017014,235.570724 179.039856,233.426102 
	C184.761826,233.001755 190.407242,233.001709 196.519470,233.002350 
	C197.063751,235.052719 197.141190,237.102417 197.097992,239.577148 
z"/>
<path fill="#53A028" opacity="1.000000" stroke="none" 
	d="
M127.980560,243.225952 
	C130.662338,243.404205 133.036072,243.849335 135.430496,244.067078 
	C139.644333,244.450302 143.870834,244.694565 148.521988,245.370819 
	C148.970459,246.487137 148.988968,247.229660 149.007477,247.972168 
	C141.209930,248.067017 133.412384,248.161865 125.219261,248.085083 
	C125.776413,246.405777 126.729126,244.898102 127.980560,243.225952 
z"/>
<path fill="#68AE3D" opacity="1.000000" stroke="none" 
	d="
M149.475327,247.980408 
	C148.988968,247.229660 148.970459,246.487137 148.945831,245.372849 
	C149.109573,244.993515 149.279434,244.985947 149.704315,244.982269 
	C151.243073,245.432541 152.523117,246.251740 153.811172,246.264526 
	C161.896057,246.344772 169.982758,246.245407 178.519943,246.072540 
	C178.983719,246.391708 178.996399,246.843796 179.001068,247.634827 
	C169.309753,247.978745 159.626465,247.983704 149.475327,247.980408 
z"/>
<path fill="#B4E17A" opacity="1.000000" stroke="none" 
	d="
M256.570496,121.652740 
	C255.953918,120.652687 255.150757,119.210548 255.104446,117.744484 
	C254.938614,112.496056 255.119888,107.236870 254.966125,101.987717 
	C254.921539,100.465675 254.194855,98.963623 253.443665,97.258942 
	C253.956787,96.026550 254.807098,94.987633 255.657394,93.948715 
	C256.015320,94.112717 256.373230,94.276718 256.731140,94.440727 
	C256.731140,103.360382 256.731140,112.280029 256.570496,121.652740 
z"/>
<path fill="#84C542" opacity="1.000000" stroke="none" 
	d="
M168.910767,205.576370 
	C166.178650,206.014587 163.535416,206.011566 160.448120,206.004761 
	C162.625290,202.722397 165.246521,199.443832 167.867767,196.165268 
	C168.245056,196.285690 168.622330,196.406097 168.999619,196.526520 
	C168.999619,199.396057 168.999619,202.265594 168.910767,205.576370 
z"/>
<path fill="#B4E17A" opacity="1.000000" stroke="none" 
	d="
M255.400406,268.865601 
	C255.126282,266.367981 255.259659,263.860626 255.858215,261.107452 
	C256.323395,260.861664 256.677979,260.899994 256.677979,260.899994 
	C256.387970,263.551941 256.097931,266.203857 255.400406,268.865601 
z"/>
<path fill="#95D052" opacity="1.000000" stroke="none" 
	d="
M237.291046,143.651978 
	C237.401031,143.144302 237.814072,142.742920 238.227112,142.341537 
	C238.349213,142.750900 238.471329,143.160248 238.407349,143.733093 
	C238.012177,143.850479 237.803116,143.804367 237.291046,143.651978 
z"/>
<path fill="#93D243" opacity="1.000000" stroke="none" 
	d="
M256.714050,260.585999 
	C256.677979,260.899994 256.323395,260.861664 256.151581,260.814697 
	C256.005676,260.328033 256.031616,259.888336 256.202545,259.282471 
	C256.481750,259.501556 256.615936,259.886749 256.714050,260.585999 
z"/>
<path fill="#6CB433" opacity="1.000000" stroke="none" 
	d="
M239.089447,212.028854 
	C239.075226,207.671524 239.061005,203.314209 239.522583,198.482330 
	C245.237823,198.020340 250.477249,198.032928 255.716675,198.045517 
	C255.754364,202.737488 255.792053,207.429443 255.357697,212.568085 
	C249.620255,212.686111 244.354843,212.357483 239.089447,212.028854 
z"/>
<path fill="#74BA36" opacity="1.000000" stroke="none" 
	d="
M255.790344,197.581329 
	C250.477249,198.032928 245.237823,198.020340 239.539825,198.019745 
	C238.769547,183.978241 238.769547,183.978043 252.854858,184.001526 
	C253.519302,184.002625 254.183762,184.012070 255.288605,184.039383 
	C255.774017,188.413132 255.819016,192.765137 255.790344,197.581329 
z"/>
<path fill="#509E27" opacity="1.000000" stroke="none" 
	d="
M255.739136,254.576477 
	C250.437057,254.693863 245.219910,254.349411 239.547623,254.011398 
	C239.078491,249.660736 239.064499,245.303635 239.527283,240.475952 
	C245.224106,240.349976 250.444138,240.694595 255.664154,241.039215 
	C255.717468,245.397690 255.770782,249.756180 255.739136,254.576477 
z"/>
<path fill="#62AB30" opacity="1.000000" stroke="none" 
	d="
M239.067535,212.490540 
	C244.354843,212.357483 249.620255,212.686111 255.288635,213.031937 
	C255.733017,217.408081 255.774414,221.767044 255.347610,226.568558 
	C249.617950,226.683365 244.356491,226.355621 239.095032,226.027863 
	C239.078568,221.669312 239.062088,217.310760 239.067535,212.490540 
z"/>
<path fill="#5AA52B" opacity="1.000000" stroke="none" 
	d="
M239.071030,226.489365 
	C244.356491,226.355621 249.617950,226.683365 255.275223,227.030304 
	C255.724335,231.404388 255.777649,235.759293 255.747559,240.576691 
	C250.444138,240.694595 245.224106,240.349976 239.549286,240.013092 
	C239.078659,235.664169 239.062836,231.307526 239.071030,226.489365 
z"/>
</svg>